<svg version="1.1" xmlns="http://www.w3.org/2000/svg" xmlns:xlink="http://www.w3.org/1999/xlink" width="50.000000pt" height="50.000000pt" viewBox="0,0,256,256"><g fill="#2bda80" fill-rule="nonzero" stroke="none" stroke-width="1" stroke-linecap="butt" stroke-linejoin="miter" stroke-miterlimit="10" stroke-dasharray="" stroke-dashoffset="0" font-family="none" font-weight="none" font-size="none" text-anchor="none" style="mix-blend-mode: normal"><g transform="scale(5.12,5.12)"><g transform="translate(0,50) scale(0.1,-0.1)"><path d="M0,416c0,-15 233,-206 251,-206c20,0 248,186 248,203c1,16 -17,17 -249,17c-210,0 -250,-2 -250,-14z"></path><path d="M0,221v-151h250h250v151c0,120 -3,149 -12,142c-7,-5 -58,-45 -113,-88c-55,-43 -106,-82 -112,-88c-9,-6 -46,17 -125,80c-62,49 -119,92 -125,97c-10,6 -13,-26 -13,-143z"></path></g></g></g></svg>